<svg width="40" height="41" viewBox="0 0 40 41" fill="none" xmlns="http://www.w3.org/2000/svg">
<path d="M36 20.5C36 24.7435 34.3143 28.8132 31.3137 31.8137C28.3131 34.8143 24.2435 36.5 20 36.5C15.7565 36.5 11.6869 34.8143 8.68629 31.8137C5.68571 28.8132 4 24.7435 4 20.5C4 16.2566 5.68571 12.1869 8.68629 9.18636C11.6869 6.18579 15.7565 4.50008 20 4.50008C21.52 4.50008 23 4.72008 24.4 5.12008L27.54 1.98009C25.1486 0.995219 22.5863 0.492267 20 0.50009C17.3736 0.50009 14.7728 1.0174 12.3463 2.0225C9.91982 3.02759 7.71504 4.50077 5.85786 6.35794C2.10714 10.1087 0 15.1957 0 20.5C0 25.8044 2.10714 30.8914 5.85786 34.6422C7.71504 36.4993 9.91982 37.9725 12.3463 38.9776C14.7728 39.9827 17.3736 40.5 20 40.5C25.3043 40.5 30.3914 38.3929 34.1421 34.6422C37.8929 30.8914 40 25.8044 40 20.5H36ZM11.82 16.6601L9 19.5L18 28.5L38 8.50007L35.18 5.66008L18 22.84L11.82 16.6601Z" fill="#73B369"/>
</svg>
