<svg width="115" height="15" viewBox="0 0 115 15" fill="none" xmlns="http://www.w3.org/2000/svg">
<path d="M19.26 1.256L16.344 14H11.376L9.9 6.764L8.424 14H3.456L0.54 1.256H4.842L5.994 9.284L7.722 1.256H12.078L13.806 9.284L14.958 1.256H19.26ZM25.517 14.126C24.497 14.126 23.579 13.916 22.763 13.496C21.947 13.076 21.305 12.476 20.837 11.696C20.381 10.904 20.153 9.98 20.153 8.924C20.153 7.868 20.381 6.95 20.837 6.17C21.305 5.378 21.947 4.772 22.763 4.352C23.579 3.932 24.497 3.722 25.517 3.722C26.537 3.722 27.455 3.932 28.271 4.352C29.087 4.772 29.723 5.378 30.179 6.17C30.647 6.95 30.881 7.868 30.881 8.924C30.881 9.98 30.647 10.904 30.179 11.696C29.723 12.476 29.087 13.076 28.271 13.496C27.455 13.916 26.537 14.126 25.517 14.126ZM25.517 10.67C25.889 10.67 26.201 10.526 26.453 10.238C26.705 9.938 26.831 9.5 26.831 8.924C26.831 8.348 26.705 7.916 26.453 7.628C26.201 7.328 25.889 7.178 25.517 7.178C25.145 7.178 24.833 7.328 24.581 7.628C24.329 7.916 24.203 8.348 24.203 8.924C24.203 9.5 24.323 9.938 24.563 10.238C24.815 10.526 25.133 10.67 25.517 10.67ZM36.9603 14.126C35.9403 14.126 35.0223 13.916 34.2063 13.496C33.3903 13.076 32.7483 12.476 32.2803 11.696C31.8243 10.904 31.5963 9.98 31.5963 8.924C31.5963 7.868 31.8243 6.95 32.2803 6.17C32.7483 5.378 33.3903 4.772 34.2063 4.352C35.0223 3.932 35.9403 3.722 36.9603 3.722C37.9803 3.722 38.8983 3.932 39.7143 4.352C40.5303 4.772 41.1663 5.378 41.6223 6.17C42.0903 6.95 42.3243 7.868 42.3243 8.924C42.3243 9.98 42.0903 10.904 41.6223 11.696C41.1663 12.476 40.5303 13.076 39.7143 13.496C38.8983 13.916 37.9803 14.126 36.9603 14.126ZM36.9603 10.67C37.3323 10.67 37.6443 10.526 37.8963 10.238C38.1483 9.938 38.2743 9.5 38.2743 8.924C38.2743 8.348 38.1483 7.916 37.8963 7.628C37.6443 7.328 37.3323 7.178 36.9603 7.178C36.5883 7.178 36.2763 7.328 36.0243 7.628C35.7723 7.916 35.6463 8.348 35.6463 8.924C35.6463 9.5 35.7663 9.938 36.0063 10.238C36.2583 10.526 36.5763 10.67 36.9603 10.67ZM43.0397 8.924C43.0397 7.856 43.2197 6.932 43.5797 6.152C43.9517 5.36 44.4557 4.76 45.0917 4.352C45.7277 3.932 46.4417 3.722 47.2337 3.722C47.8937 3.722 48.4577 3.86 48.9257 4.136C49.4057 4.4 49.7717 4.766 50.0237 5.234V0.68H54.0197V14H50.0237V12.614C49.7717 13.082 49.4057 13.454 48.9257 13.73C48.4577 13.994 47.8937 14.126 47.2337 14.126C46.4417 14.126 45.7277 13.922 45.0917 13.514C44.4557 13.094 43.9517 12.494 43.5797 11.714C43.2197 10.922 43.0397 9.992 43.0397 8.924ZM50.0417 8.924C50.0417 8.384 49.9037 7.964 49.6277 7.664C49.3517 7.364 48.9977 7.214 48.5657 7.214C48.1337 7.214 47.7797 7.364 47.5037 7.664C47.2277 7.964 47.0897 8.384 47.0897 8.924C47.0897 9.464 47.2277 9.884 47.5037 10.184C47.7797 10.484 48.1337 10.634 48.5657 10.634C48.9977 10.634 49.3517 10.484 49.6277 10.184C49.9037 9.884 50.0417 9.464 50.0417 8.924Z" fill="white"/>
<path d="M67.6041 1.256V14H63.6081V9.032H59.8101V14H55.8141V1.256H59.8101V5.846H63.6081V1.256H67.6041ZM68.862 8.924C68.862 7.856 69.042 6.932 69.402 6.152C69.774 5.36 70.278 4.76 70.914 4.352C71.55 3.932 72.264 3.722 73.056 3.722C73.716 3.722 74.286 3.86 74.766 4.136C75.246 4.4 75.612 4.766 75.864 5.234V3.848H79.842V14H75.864V12.614C75.612 13.082 75.246 13.454 74.766 13.73C74.286 13.994 73.716 14.126 73.056 14.126C72.264 14.126 71.55 13.922 70.914 13.514C70.278 13.094 69.774 12.494 69.402 11.714C69.042 10.922 68.862 9.992 68.862 8.924ZM75.864 8.924C75.864 8.384 75.726 7.964 75.45 7.664C75.174 7.364 74.82 7.214 74.388 7.214C73.956 7.214 73.602 7.364 73.326 7.664C73.05 7.964 72.912 8.384 72.912 8.924C72.912 9.464 73.05 9.884 73.326 10.184C73.602 10.484 73.956 10.634 74.388 10.634C74.82 10.634 75.174 10.484 75.45 10.184C75.726 9.884 75.864 9.464 75.864 8.924ZM92.3823 3.848V14H88.3863V12.452C88.0743 12.932 87.6543 13.322 87.1263 13.622C86.6103 13.922 85.9923 14.072 85.2723 14.072C84.1083 14.072 83.1963 13.682 82.5363 12.902C81.8883 12.122 81.5643 11.066 81.5643 9.734V3.848H85.5423V9.23C85.5423 9.71 85.6683 10.094 85.9203 10.382C86.1843 10.658 86.5323 10.796 86.9643 10.796C87.4083 10.796 87.7563 10.658 88.0083 10.382C88.2603 10.094 88.3863 9.71 88.3863 9.23V3.848H92.3823ZM98.7051 14.126C97.7451 14.126 96.8931 13.97 96.1491 13.658C95.4171 13.346 94.8351 12.914 94.4031 12.362C93.9711 11.81 93.7251 11.186 93.6651 10.49H97.4991C97.5471 10.79 97.6731 11.012 97.8771 11.156C98.0931 11.3 98.3631 11.372 98.6871 11.372C98.8911 11.372 99.0531 11.33 99.1731 11.246C99.2931 11.15 99.3531 11.036 99.3531 10.904C99.3531 10.676 99.2271 10.514 98.9751 10.418C98.7231 10.322 98.2971 10.214 97.6971 10.094C96.9651 9.95 96.3591 9.794 95.8791 9.626C95.4111 9.458 94.9971 9.17 94.6371 8.762C94.2891 8.354 94.1151 7.79 94.1151 7.07C94.1151 6.446 94.2771 5.882 94.6011 5.378C94.9371 4.862 95.4291 4.46 96.0771 4.172C96.7251 3.872 97.5111 3.722 98.4351 3.722C99.8031 3.722 100.871 4.058 101.639 4.73C102.419 5.402 102.887 6.278 103.043 7.358H99.4971C99.4371 7.082 99.3111 6.872 99.1191 6.728C98.9271 6.572 98.6691 6.494 98.3451 6.494C98.1411 6.494 97.9851 6.536 97.8771 6.62C97.7691 6.692 97.7151 6.806 97.7151 6.962C97.7151 7.166 97.8411 7.322 98.0931 7.43C98.3451 7.526 98.7471 7.628 99.2991 7.736C100.031 7.88 100.649 8.042 101.153 8.222C101.657 8.402 102.095 8.714 102.467 9.158C102.839 9.59 103.025 10.19 103.025 10.958C103.025 11.558 102.851 12.098 102.503 12.578C102.155 13.058 101.651 13.436 100.991 13.712C100.343 13.988 99.5811 14.126 98.7051 14.126ZM114.439 8.834C114.439 9.11 114.421 9.374 114.385 9.626H107.959C108.019 10.502 108.385 10.94 109.057 10.94C109.489 10.94 109.801 10.742 109.993 10.346H114.223C114.079 11.066 113.773 11.714 113.305 12.29C112.849 12.854 112.267 13.304 111.559 13.64C110.863 13.964 110.095 14.126 109.255 14.126C108.247 14.126 107.347 13.916 106.555 13.496C105.775 13.076 105.163 12.476 104.719 11.696C104.287 10.904 104.071 9.98 104.071 8.924C104.071 7.868 104.287 6.95 104.719 6.17C105.163 5.378 105.775 4.772 106.555 4.352C107.347 3.932 108.247 3.722 109.255 3.722C110.263 3.722 111.157 3.932 111.937 4.352C112.729 4.76 113.341 5.348 113.773 6.116C114.217 6.884 114.439 7.79 114.439 8.834ZM110.389 7.88C110.389 7.544 110.281 7.292 110.065 7.124C109.849 6.944 109.579 6.854 109.255 6.854C108.547 6.854 108.133 7.196 108.013 7.88H110.389Z" fill="#73B369"/>
</svg>
