<svg width="193" height="24" viewBox="0 0 193 24" fill="none" xmlns="http://www.w3.org/2000/svg">
<path d="M30.84 1.94L25.35 23H19.14L15.78 9.14L12.3 23H6.09L0.75 1.94H6.24L9.27 17.27L13.02 1.94H18.66L22.26 17.27L25.32 1.94H30.84ZM41.0327 23.24C39.3927 23.24 37.9127 22.89 36.5927 22.19C35.2927 21.49 34.2627 20.49 33.5027 19.19C32.7627 17.89 32.3927 16.37 32.3927 14.63C32.3927 12.91 32.7727 11.4 33.5327 10.1C34.2927 8.78 35.3327 7.77 36.6527 7.07C37.9727 6.37 39.4527 6.02 41.0927 6.02C42.7327 6.02 44.2127 6.37 45.5327 7.07C46.8527 7.77 47.8927 8.78 48.6527 10.1C49.4127 11.4 49.7927 12.91 49.7927 14.63C49.7927 16.35 49.4027 17.87 48.6227 19.19C47.8627 20.49 46.8127 21.49 45.4727 22.19C44.1527 22.89 42.6727 23.24 41.0327 23.24ZM41.0327 18.8C42.0127 18.8 42.8427 18.44 43.5227 17.72C44.2227 17 44.5727 15.97 44.5727 14.63C44.5727 13.29 44.2327 12.26 43.5527 11.54C42.8927 10.82 42.0727 10.46 41.0927 10.46C40.0927 10.46 39.2627 10.82 38.6027 11.54C37.9427 12.24 37.6127 13.27 37.6127 14.63C37.6127 15.97 37.9327 17 38.5727 17.72C39.2327 18.44 40.0527 18.8 41.0327 18.8ZM60.1343 23.24C58.4943 23.24 57.0143 22.89 55.6943 22.19C54.3943 21.49 53.3643 20.49 52.6043 19.19C51.8643 17.89 51.4943 16.37 51.4943 14.63C51.4943 12.91 51.8743 11.4 52.6343 10.1C53.3943 8.78 54.4343 7.77 55.7543 7.07C57.0743 6.37 58.5543 6.02 60.1943 6.02C61.8343 6.02 63.3143 6.37 64.6343 7.07C65.9543 7.77 66.9943 8.78 67.7543 10.1C68.5143 11.4 68.8943 12.91 68.8943 14.63C68.8943 16.35 68.5043 17.87 67.7243 19.19C66.9643 20.49 65.9143 21.49 64.5743 22.19C63.2543 22.89 61.7743 23.24 60.1343 23.24ZM60.1343 18.8C61.1143 18.8 61.9443 18.44 62.6243 17.72C63.3243 17 63.6743 15.97 63.6743 14.63C63.6743 13.29 63.3343 12.26 62.6543 11.54C61.9943 10.82 61.1743 10.46 60.1943 10.46C59.1943 10.46 58.3643 10.82 57.7043 11.54C57.0443 12.24 56.7143 13.27 56.7143 14.63C56.7143 15.97 57.0343 17 57.6743 17.72C58.3343 18.44 59.1543 18.8 60.1343 18.8ZM70.5959 14.6C70.5959 12.88 70.9159 11.37 71.5559 10.07C72.2159 8.77 73.1059 7.77 74.2259 7.07C75.3459 6.37 76.5959 6.02 77.9759 6.02C79.0759 6.02 80.0759 6.25 80.9759 6.71C81.8959 7.17 82.6159 7.79 83.1359 8.57V0.8H88.2659V23H83.1359V20.6C82.6559 21.4 81.9659 22.04 81.0659 22.52C80.1859 23 79.1559 23.24 77.9759 23.24C76.5959 23.24 75.3459 22.89 74.2259 22.19C73.1059 21.47 72.2159 20.46 71.5559 19.16C70.9159 17.84 70.5959 16.32 70.5959 14.6ZM83.1359 14.63C83.1359 13.35 82.7759 12.34 82.0559 11.6C81.3559 10.86 80.4959 10.49 79.4759 10.49C78.4559 10.49 77.5859 10.86 76.8659 11.6C76.1659 12.32 75.8159 13.32 75.8159 14.6C75.8159 15.88 76.1659 16.9 76.8659 17.66C77.5859 18.4 78.4559 18.77 79.4759 18.77C80.4959 18.77 81.3559 18.4 82.0559 17.66C82.7759 16.92 83.1359 15.91 83.1359 14.63Z" fill="#73B369"/>
<path d="M116.575 1.94V23H111.445V14.33H103.465V23H98.3346V1.94H103.465V10.19H111.445V1.94H116.575ZM127.898 23.24C126.258 23.24 124.778 22.89 123.458 22.19C122.158 21.49 121.128 20.49 120.368 19.19C119.628 17.89 119.258 16.37 119.258 14.63C119.258 12.91 119.638 11.4 120.398 10.1C121.158 8.78 122.198 7.77 123.518 7.07C124.838 6.37 126.318 6.02 127.958 6.02C129.598 6.02 131.078 6.37 132.398 7.07C133.718 7.77 134.758 8.78 135.518 10.1C136.278 11.4 136.658 12.91 136.658 14.63C136.658 16.35 136.268 17.87 135.488 19.19C134.728 20.49 133.678 21.49 132.338 22.19C131.018 22.89 129.538 23.24 127.898 23.24ZM127.898 18.8C128.878 18.8 129.708 18.44 130.388 17.72C131.088 17 131.438 15.97 131.438 14.63C131.438 13.29 131.098 12.26 130.418 11.54C129.758 10.82 128.938 10.46 127.958 10.46C126.958 10.46 126.128 10.82 125.468 11.54C124.808 12.24 124.478 13.27 124.478 14.63C124.478 15.97 124.798 17 125.438 17.72C126.098 18.44 126.918 18.8 127.898 18.8ZM155.91 6.26V23H150.78V20.72C150.26 21.46 149.55 22.06 148.65 22.52C147.77 22.96 146.79 23.18 145.71 23.18C144.43 23.18 143.3 22.9 142.32 22.34C141.34 21.76 140.58 20.93 140.04 19.85C139.5 18.77 139.23 17.5 139.23 16.04V6.26H144.33V15.35C144.33 16.47 144.62 17.34 145.2 17.96C145.78 18.58 146.56 18.89 147.54 18.89C148.54 18.89 149.33 18.58 149.91 17.96C150.49 17.34 150.78 16.47 150.78 15.35V6.26H155.91ZM166.404 23.24C164.944 23.24 163.644 22.99 162.504 22.49C161.364 21.99 160.464 21.31 159.804 20.45C159.144 19.57 158.774 18.59 158.694 17.51H163.764C163.824 18.09 164.094 18.56 164.574 18.92C165.054 19.28 165.644 19.46 166.344 19.46C166.984 19.46 167.474 19.34 167.814 19.1C168.174 18.84 168.354 18.51 168.354 18.11C168.354 17.63 168.104 17.28 167.604 17.06C167.104 16.82 166.294 16.56 165.174 16.28C163.974 16 162.974 15.71 162.174 15.41C161.374 15.09 160.684 14.6 160.104 13.94C159.524 13.26 159.234 12.35 159.234 11.21C159.234 10.25 159.494 9.38 160.014 8.6C160.554 7.8 161.334 7.17 162.354 6.71C163.394 6.25 164.624 6.02 166.044 6.02C168.144 6.02 169.794 6.54 170.994 7.58C172.214 8.62 172.914 10 173.094 11.72H168.354C168.274 11.14 168.014 10.68 167.574 10.34C167.154 10 166.594 9.83 165.894 9.83C165.294 9.83 164.834 9.95 164.514 10.19C164.194 10.41 164.034 10.72 164.034 11.12C164.034 11.6 164.284 11.96 164.784 12.2C165.304 12.44 166.104 12.68 167.184 12.92C168.424 13.24 169.434 13.56 170.214 13.88C170.994 14.18 171.674 14.68 172.254 15.38C172.854 16.06 173.164 16.98 173.184 18.14C173.184 19.12 172.904 20 172.344 20.78C171.804 21.54 171.014 22.14 169.974 22.58C168.954 23.02 167.764 23.24 166.404 23.24ZM192.103 14.36C192.103 14.84 192.073 15.34 192.013 15.86H180.403C180.483 16.9 180.813 17.7 181.393 18.26C181.993 18.8 182.723 19.07 183.583 19.07C184.863 19.07 185.753 18.53 186.253 17.45H191.713C191.433 18.55 190.923 19.54 190.183 20.42C189.463 21.3 188.553 21.99 187.453 22.49C186.353 22.99 185.123 23.24 183.763 23.24C182.123 23.24 180.663 22.89 179.383 22.19C178.103 21.49 177.103 20.49 176.383 19.19C175.663 17.89 175.303 16.37 175.303 14.63C175.303 12.89 175.653 11.37 176.353 10.07C177.073 8.77 178.073 7.77 179.353 7.07C180.633 6.37 182.103 6.02 183.763 6.02C185.383 6.02 186.823 6.36 188.083 7.04C189.343 7.72 190.323 8.69 191.023 9.95C191.743 11.21 192.103 12.68 192.103 14.36ZM186.853 13.01C186.853 12.13 186.553 11.43 185.953 10.91C185.353 10.39 184.603 10.13 183.703 10.13C182.843 10.13 182.113 10.38 181.513 10.88C180.933 11.38 180.573 12.09 180.433 13.01H186.853Z" fill="#020202"/>
</svg>
